<svg width="32" height="32" viewBox="0 0 32 32" fill="none" xmlns="http://www.w3.org/2000/svg">
<path d="M29.7801 24.37L26.1301 19.89L26.0001 12C26.0044 11.9468 26.0044 11.8932 26.0001 11.84C24.8501 5.58 21.2101 2 16.0001 2C10.5001 2 6.08008 6 5.00008 11.82C4.99467 11.8799 4.99467 11.9401 5.00008 12L4.87008 20L2.14008 24.48C2.05231 24.632 2.0061 24.8045 2.0061 24.98C2.0061 25.1555 2.05231 25.328 2.14008 25.48C2.22478 25.6349 2.34896 25.7646 2.50001 25.8559C2.65106 25.9472 2.82359 25.9969 3.00008 26H12.0001C12.0001 27.0609 12.4215 28.0783 13.1717 28.8284C13.9218 29.5786 14.9392 30 16.0001 30C17.0609 30 18.0784 29.5786 18.8285 28.8284C19.5786 28.0783 20.0001 27.0609 20.0001 26H29.0001C29.1886 25.9995 29.3731 25.9457 29.5323 25.8448C29.6915 25.744 29.819 25.6002 29.9001 25.43C29.9822 25.26 30.0145 25.0702 29.9932 24.8827C29.972 24.6951 29.8981 24.5173 29.7801 24.37ZM16.0001 28C15.4696 28 14.9609 27.7893 14.5859 27.4142C14.2108 27.0391 14.0001 26.5304 14.0001 26H18.0001C18.0001 26.5304 17.7894 27.0391 17.4143 27.4142C17.0392 27.7893 16.5305 28 16.0001 28ZM4.77008 24L6.77008 20.76C6.85995 20.6086 6.90825 20.4361 6.91008 20.26L7.00008 12.1C7.91008 7.25 11.5201 4 16.0001 4C21.6301 4 23.4301 9 24.0001 12.1L24.1401 20.26C24.1414 20.4856 24.2189 20.7041 24.3601 20.88L26.9001 24H4.77008Z" fill="white"/>
</svg>
