<svg width="23" height="31" viewBox="0 0 23 31" fill="none" xmlns="http://www.w3.org/2000/svg">
<path d="M15.4756 18.043C16.1494 16.6141 16.5447 14.9188 16.5447 13.0963C16.5447 8.0043 13.4855 3.875 9.71211 3.875C5.93418 3.875 2.875 8.0043 2.875 13.0963C2.875 18.1883 5.93418 22.3176 9.70762 22.3176C11.0777 22.3176 12.3535 21.7727 13.4227 20.8402L13.7326 20.5496L18.6111 27.125L20.125 25.0482L15.251 18.4729L15.4756 18.043ZM13.5395 7.94375C14.5592 9.31816 15.1207 11.1467 15.1207 13.0902C15.1207 15.0338 14.5592 16.8623 13.5395 18.2367C12.5197 19.6111 11.1631 20.368 9.72109 20.368C8.2791 20.368 6.92246 19.6111 5.90273 18.2367C4.88301 16.8623 4.32148 15.0338 4.32148 13.0902C4.32148 11.1467 4.88301 9.31816 5.90273 7.94375C6.92246 6.56934 8.2791 5.8125 9.72109 5.8125C11.1631 5.8125 12.5197 6.56934 13.5395 7.94375Z" fill="black"/>
</svg>
