<svg width="64" height="67" viewBox="0 0 64 67" fill="none" xmlns="http://www.w3.org/2000/svg">
<g clip-path="url(#clip0_88_31)">
<path d="M32 0C14.4 0 0 15.075 0 33.5C0 51.925 14.4 67 32 67C49.6 67 64 51.925 64 33.5C64 15.075 49.6 0 32 0ZM32 11.1667C37.8667 11.1667 42.6667 17.3083 42.6667 25.125C42.6667 32.9417 37.8667 39.0833 32 39.0833C26.1333 39.0833 21.3333 32.9417 21.3333 25.125C21.3333 17.3083 26.1333 11.1667 32 11.1667ZM49.6 54.4375C45.0667 58.625 38.6667 61.4167 32 61.4167C25.3333 61.4167 18.9333 58.625 14.4 54.4375C13.3333 53.3208 13.0667 51.6458 14.1333 50.5292C17.0667 46.9 21.0667 44.3875 25.3333 42.9917C27.4667 44.1083 29.6 44.6667 32 44.6667C34.4 44.6667 36.5333 44.1083 38.6667 42.9917C43.2 44.3875 46.9333 46.9 49.8667 50.5292C50.9333 51.6458 50.9333 53.3208 49.6 54.4375Z" fill="white"/>
</g>
<defs>
<clipPath id="clip0_88_31">
<rect width="64" height="67" fill="white"/>
</clipPath>
</defs>
</svg>
